<?xml version="1.0" standalone="no"?>
<!DOCTYPE svg PUBLIC "-//W3C//DTD SVG 20010904//EN"
 "http://www.w3.org/TR/2001/REC-SVG-20010904/DTD/svg10.dtd">
<svg version="1.0" xmlns="http://www.w3.org/2000/svg"
 width="300.000000pt" height="168.000000pt" viewBox="0 0 300.000000 168.000000"
 preserveAspectRatio="xMidYMid meet">
<metadata>
Created by potrace 1.16, written by Peter Selinger 2001-2019
</metadata>
<g transform="translate(0.000000,168.000000) scale(0.100000,-0.100000)"
fill="#000000" stroke="none">
<path d="M1138 1183 l-387 -3 -6 -48 c-3 -26 -8 -63 -11 -82 -4 -28 0 -40 15
-55 28 -24 26 -59 -3 -82 -23 -17 -24 -26 -37 -216 -9 -143 -10 -200 -2 -208
16 -16 33 -2 33 26 l0 24 183 3 c100 2 220 2 266 0 78 -3 83 -4 78 -23 -7 -26
22 -39 35 -15 9 16 11 16 24 -1 12 -17 13 -16 14 10 0 15 4 27 9 27 4 0 6 -12
3 -26 -3 -19 -1 -25 7 -20 6 4 11 16 11 27 0 10 5 19 11 19 6 0 9 -7 6 -15 -4
-8 -2 -17 3 -20 6 -4 10 3 10 14 0 28 20 27 21 -1 1 -22 1 -22 9 2 4 14 9 22
10 18 1 -5 4 -12 5 -18 1 -5 4 -13 5 -17 1 -5 6 3 10 17 8 24 8 24 9 3 1 -28
21 -31 21 -3 0 28 20 25 21 -2 1 -22 1 -22 9 2 8 24 8 24 9 3 1 -13 6 -23 12
-23 6 0 9 9 6 20 -3 11 -1 20 4 20 5 0 9 -12 9 -26 0 -14 4 -23 10 -19 6 3 10
17 10 31 0 14 4 23 9 20 5 -3 7 -15 4 -26 -3 -11 0 -20 6 -20 6 0 12 10 12 23
1 17 3 16 9 -8 7 -29 9 -28 23 15 4 9 6 6 6 -7 1 -13 5 -23 10 -23 5 0 12 10
14 23 l4 22 2 -22 c1 -30 18 -30 24 -1 l4 23 2 -22 c0 -13 5 -23 10 -23 5 0
12 10 14 23 3 17 5 16 6 -8 1 -22 4 -26 10 -16 5 8 7 20 4 28 -3 7 0 13 6 13
6 0 11 -7 11 -15 0 -8 4 -15 10 -15 5 0 7 7 4 15 -4 8 -1 15 5 15 6 0 11 -7
11 -15 0 -21 20 -19 21 3 0 12 3 10 11 -8 l11 -25 7 25 c8 25 8 25 9 2 1 -29
21 -19 22 11 1 20 2 20 9 -3 l7 -25 12 25 c10 23 11 23 7 3 -2 -13 0 -23 5
-23 5 0 9 7 9 16 0 8 5 12 10 9 6 -4 8 -11 5 -16 -4 -5 -1 -9 4 -9 6 0 11 7
11 15 0 23 18 18 23 -7 l4 -23 2 23 c0 12 5 22 10 22 5 0 12 -10 14 -22 l4
-23 2 23 c0 12 6 22 12 22 6 0 9 -7 6 -15 -4 -8 -2 -17 3 -20 6 -4 11 4 11 17
1 17 3 18 6 5 6 -22 20 -22 26 1 4 16 5 16 6 0 0 -10 5 -18 10 -18 5 0 12 8
14 18 4 16 5 16 6 0 2 -26 19 -22 24 5 3 18 5 16 6 -7 1 -26 14 -30 17 -5 3
22 7 22 14 -1 8 -24 8 -24 9 -2 1 12 6 22 11 22 6 0 10 -10 11 -22 1 -22 1
-22 9 2 l7 25 11 -25 c8 -18 11 -20 11 -7 1 9 6 17 12 17 5 0 8 -4 4 -9 -3 -5
-1 -12 5 -16 5 -3 10 1 10 9 0 9 4 16 10 16 5 0 7 -6 4 -14 -3 -8 -1 -17 5
-21 7 -4 11 4 11 19 0 14 4 26 9 26 5 0 7 -10 4 -23 -4 -18 -3 -19 6 -7 9 13
11 13 11 -2 0 -12 8 -18 25 -18 30 0 30 4 14 250 -10 156 -12 166 -35 183 -19
15 -22 22 -13 38 5 11 7 24 4 29 -4 6 1 13 10 16 14 6 16 17 10 78 -3 39 -9
79 -11 89 -6 18 24 18 -1206 10z m893 -155 c22 -18 37 -249 17 -265 -8 -7
-231 -13 -613 -18 -330 -4 -603 -9 -607 -12 -11 -6 1 233 12 263 5 13 11 24
12 24 2 1 181 3 398 7 217 3 396 6 397 7 1 0 84 2 185 4 139 2 187 0 199 -10z"/>
</g>
</svg>
